<svg xmlns="http://www.w3.org/2000/svg" viewBox="0 0 100 100"><polygon points="34.00,17.00 51.32,27.00 51.32,47.00 34.00,57.00 16.68,47.00 16.68,27.00" fill="#5EC962" stroke="#0c1b2e" stroke-opacity="0.16" stroke-width="1.4" stroke-linejoin="round"/><polygon points="66.00,17.00 83.32,27.00 83.32,47.00 66.00,57.00 48.68,47.00 48.68,27.00" fill="#21918C" stroke="#0c1b2e" stroke-opacity="0.16" stroke-width="1.4" stroke-linejoin="round"/><polygon points="50.00,24.50 77.28,40.25 77.28,71.75 50.00,87.50 22.72,71.75 22.72,40.25" fill="#fff" /><polygon points="50.00,27.00 75.11,41.50 75.11,70.50 50.00,85.00 24.89,70.50 24.89,41.50" fill="#F4C300" stroke="#0c1b2e" stroke-opacity="0.16" stroke-width="1.4" stroke-linejoin="round"/><g fill="#15233A" transform="translate(50,56.5) scale(0.01637,-0.01637) translate(-969.00,-733.00)"><path d="M357 0 7 1466H310L531 459L799 1466H1151L1408 442L1633 1466H1931L1575 0H1261L969 1096L678 0Z"/></g></svg>